# xmcd
#
# Track frame offsets: 
#        150
#        16855
#        34655
#        58885
#        82530
#        108060
#        127790
#        165857
#        193357
#        215810
#
# Disc length: 3114 seconds
#
# Revision: 5
# Processed by: cddbd v1.5.2PL0 Copyright (c) Steve Scherf et al.
# Submitted via: ExactAudioCopy v1.0b3
#
DISCID=740c280a
DTITLE=BBM - Around The Next Dream
DYEAR=1994
DGENRE=Rock
TTITLE0=Waiting In The Wings
TTITLE1=City Of Gold
TTITLE2=Where In The World
TTITLE3=Can't Fool The Blues
TTITLE4=High Cost Of Loving
TTITLE5=Glory Days
TTITLE6=Why Does Love (Have To Go Wrong)?
TTITLE7=Naked Flame
TTITLE8=I Wonder Why (Are You So Mean To Me?)
TTITLE9=Wrong Side Of Town
EXTD=
EXTT0=
EXTT1=
EXTT2=Akran Ahmun\tdr
EXTT3=
EXTT4=
EXTT5=Morris Murphy\tbach Tp
EXTT6=
EXTT7=
EXTT8=
EXTT9=Jack Bruce\tkb
PLAYORDER=
